<svg version="1.1" xmlns="http://www.w3.org/2000/svg" xmlns:xlink="http://www.w3.org/1999/xlink" width="720.5" height="720.5" viewBox="0,0,720.5,720.5"><g transform="translate(120.25,120.25)"><g fill="#222729" stroke="none" stroke-width="0" stroke-miterlimit="10"><path d="M-0.25,30.25v-30.5h30.5v30.5z"/><path d="M59.75,30.25v-30.5h30.5v30.5z"/><path d="M119.75,30.25v-30.5h30.5v30.5z"/><path d="M179.75,30.25v-30.5h30.5v30.5z"/><path d="M239.75,30.25v-30.5h30.5v30.5z"/><path d="M299.75,30.25v-30.5h30.5v30.5z"/><path d="M359.75,30.25v-30.5h30.5v30.5z"/><path d="M419.75,30.25v-30.5h30.5v30.5z"/><path d="M29.75,60.25v-30.5h30.5v30.5z"/><path d="M89.75,60.25v-30.5h30.5v30.5z"/><path d="M149.75,60.25v-30.5h30.5v30.5z"/><path d="M209.75,60.25v-30.5h30.5v30.5z"/><path d="M269.75,60.25v-30.5h30.5v30.5z"/><path d="M329.75,60.25v-30.5h30.5v30.5z"/><path d="M389.75,60.25v-30.5h30.5v30.5z"/><path d="M449.75,60.25v-30.5h30.5v30.5z"/><path d="M-0.25,90.25v-30.5h30.5v30.5z"/><path d="M59.75,90.25v-30.5h30.5v30.5z"/><path d="M119.75,90.25v-30.5h30.5v30.5z"/><path d="M179.75,90.25v-30.5h30.5v30.5z"/><path d="M239.75,90.25v-30.5h30.5v30.5z"/><path d="M299.75,90.25v-30.5h30.5v30.5z"/><path d="M359.75,90.25v-30.5h30.5v30.5z"/><path d="M419.75,90.25v-30.5h30.5v30.5z"/><path d="M29.75,120.25v-30.5h30.5v30.5z"/><path d="M89.75,120.25v-30.5h30.5v30.5z"/><path d="M149.75,120.25v-30.5h30.5v30.5z"/><path d="M209.75,120.25v-30.5h30.5v30.5z"/><path d="M269.75,120.25v-30.5h30.5v30.5z"/><path d="M329.75,120.25v-30.5h30.5v30.5z"/><path d="M389.75,120.25v-30.5h30.5v30.5z"/><path d="M449.75,120.25v-30.5h30.5v30.5z"/><path d="M-0.25,150.25v-30.5h30.5v30.5z"/><path d="M59.75,150.25v-30.5h30.5v30.5z"/><path d="M119.75,150.25v-30.5h30.5v30.5z"/><path d="M179.75,150.25v-30.5h30.5v30.5z"/><path d="M239.75,150.25v-30.5h30.5v30.5z"/><path d="M299.75,150.25v-30.5h30.5v30.5z"/><path d="M359.75,150.25v-30.5h30.5v30.5z"/><path d="M419.75,150.25v-30.5h30.5v30.5z"/><path d="M29.75,180.25v-30.5h30.5v30.5z"/><path d="M89.75,180.25v-30.5h30.5v30.5z"/><path d="M149.75,180.25v-30.5h30.5v30.5z"/><path d="M209.75,180.25v-30.5h30.5v30.5z"/><path d="M269.75,180.25v-30.5h30.5v30.5z"/><path d="M329.75,180.25v-30.5h30.5v30.5z"/><path d="M389.75,180.25v-30.5h30.5v30.5z"/><path d="M449.75,180.25v-30.5h30.5v30.5z"/><path d="M-0.25,210.25v-30.5h30.5v30.5z"/><path d="M59.75,210.25v-30.5h30.5v30.5z"/><path d="M119.75,210.25v-30.5h30.5v30.5z"/><path d="M179.75,210.25v-30.5h30.5v30.5z"/><path d="M239.75,210.25v-30.5h30.5v30.5z"/><path d="M299.75,210.25v-30.5h30.5v30.5z"/><path d="M359.75,210.25v-30.5h30.5v30.5z"/><path d="M419.75,210.25v-30.5h30.5v30.5z"/><path d="M29.75,240.25v-30.5h30.5v30.5z"/><path d="M89.75,240.25v-30.5h30.5v30.5z"/><path d="M149.75,240.25v-30.5h30.5v30.5z"/><path d="M209.75,240.25v-30.5h30.5v30.5z"/><path d="M269.75,240.25v-30.5h30.5v30.5z"/><path d="M329.75,240.25v-30.5h30.5v30.5z"/><path d="M389.75,240.25v-30.5h30.5v30.5z"/><path d="M449.75,240.25v-30.5h30.5v30.5z"/><path d="M-0.25,270.25v-30.5h30.5v30.5z"/><path d="M59.75,270.25v-30.5h30.5v30.5z"/><path d="M119.75,270.25v-30.5h30.5v30.5z"/><path d="M179.75,270.25v-30.5h30.5v30.5z"/><path d="M239.75,270.25v-30.5h30.5v30.5z"/><path d="M299.75,270.25v-30.5h30.5v30.5z"/><path d="M359.75,270.25v-30.5h30.5v30.5z"/><path d="M419.75,270.25v-30.5h30.5v30.5z"/><path d="M29.75,300.25v-30.5h30.5v30.5z"/><path d="M89.75,300.25v-30.5h30.5v30.5z"/><path d="M149.75,300.25v-30.5h30.5v30.5z"/><path d="M209.75,300.25v-30.5h30.5v30.5z"/><path d="M269.75,300.25v-30.5h30.5v30.5z"/><path d="M329.75,300.25v-30.5h30.5v30.5z"/><path d="M389.75,300.25v-30.5h30.5v30.5z"/><path d="M449.75,300.25v-30.5h30.5v30.5z"/><path d="M-0.25,330.25v-30.5h30.5v30.5z"/><path d="M59.75,330.25v-30.5h30.5v30.5z"/><path d="M119.75,330.25v-30.5h30.5v30.5z"/><path d="M179.75,330.25v-30.5h30.5v30.5z"/><path d="M239.75,330.25v-30.5h30.5v30.5z"/><path d="M299.75,330.25v-30.5h30.5v30.5z"/><path d="M359.75,330.25v-30.5h30.5v30.5z"/><path d="M419.75,330.25v-30.5h30.5v30.5z"/><path d="M29.75,360.25v-30.5h30.5v30.5z"/><path d="M89.75,360.25v-30.5h30.5v30.5z"/><path d="M149.75,360.25v-30.5h30.5v30.5z"/><path d="M209.75,360.25v-30.5h30.5v30.5z"/><path d="M269.75,360.25v-30.5h30.5v30.5z"/><path d="M329.75,360.25v-30.5h30.5v30.5z"/><path d="M389.75,360.25v-30.5h30.5v30.5z"/><path d="M449.75,360.25v-30.5h30.5v30.5z"/><path d="M-0.25,390.25v-30.5h30.5v30.5z"/><path d="M59.75,390.25v-30.5h30.5v30.5z"/><path d="M119.75,390.25v-30.5h30.5v30.5z"/><path d="M179.75,390.25v-30.5h30.5v30.5z"/><path d="M239.75,390.25v-30.5h30.5v30.5z"/><path d="M299.75,390.25v-30.5h30.5v30.5z"/><path d="M359.75,390.25v-30.5h30.5v30.5z"/><path d="M419.75,390.25v-30.5h30.5v30.5z"/><path d="M29.75,420.25v-30.5h30.5v30.5z"/><path d="M89.75,420.25v-30.5h30.5v30.5z"/><path d="M149.75,420.25v-30.5h30.5v30.5z"/><path d="M209.75,420.25v-30.5h30.5v30.5z"/><path d="M269.75,420.25v-30.5h30.5v30.5z"/><path d="M329.75,420.25v-30.5h30.5v30.5z"/><path d="M389.75,420.25v-30.5h30.5v30.5z"/><path d="M449.75,420.25v-30.5h30.5v30.5z"/><path d="M-0.25,450.25v-30.5h30.5v30.5z"/><path d="M59.75,450.25v-30.5h30.5v30.5z"/><path d="M119.75,450.25v-30.5h30.5v30.5z"/><path d="M179.75,450.25v-30.5h30.5v30.5z"/><path d="M239.75,450.25v-30.5h30.5v30.5z"/><path d="M299.75,450.25v-30.5h30.5v30.5z"/><path d="M359.75,450.25v-30.5h30.5v30.5z"/><path d="M419.75,450.25v-30.5h30.5v30.5z"/><path d="M29.75,480.25v-30.5h30.5v30.5z"/><path d="M89.75,480.25v-30.5h30.5v30.5z"/><path d="M149.75,480.25v-30.5h30.5v30.5z"/><path d="M209.75,480.25v-30.5h30.5v30.5z"/><path d="M269.75,480.25v-30.5h30.5v30.5z"/><path d="M329.75,480.25v-30.5h30.5v30.5z"/><path d="M389.75,480.25v-30.5h30.5v30.5z"/><path d="M449.75,480.25v-30.5h30.5v30.5z"/><path d="M-60.25,30.25v-30.5h30.5v30.5z"/><path d="M-30.25,60.25v-30.5h30.5v30.5z"/><path d="M-60.25,90.25v-30.5h30.5v30.5z"/><path d="M-30.25,120.25v-30.5h30.5v30.5z"/><path d="M-60.25,150.25v-30.5h30.5v30.5z"/><path d="M-30.25,180.25v-30.5h30.5v30.5z"/><path d="M-60.25,210.25v-30.5h30.5v30.5z"/><path d="M-30.25,240.25v-30.5h30.5v30.5z"/><path d="M-60.25,270.25v-30.5h30.5v30.5z"/><path d="M-30.25,300.25v-30.5h30.5v30.5z"/><path d="M-60.25,330.25v-30.5h30.5v30.5z"/><path d="M-30.25,360.25v-30.5h30.5v30.5z"/><path d="M-60.25,390.25v-30.5h30.5v30.5z"/><path d="M-30.25,420.25v-30.5h30.5v30.5z"/><path d="M-60.25,450.25v-30.5h30.5v30.5z"/><path d="M-30.25,480.25v-30.5h30.5v30.5z"/><path d="M-120.25,30.25v-30.5h30.5v30.5z"/><path d="M-90.25,60.25v-30.5h30.5v30.5z"/><path d="M-120.25,90.25v-30.5h30.5v30.5z"/><path d="M-90.25,120.25v-30.5h30.5v30.5z"/><path d="M-120.25,150.25v-30.5h30.5v30.5z"/><path d="M-90.25,180.25v-30.5h30.5v30.5z"/><path d="M-120.25,210.25v-30.5h30.5v30.5z"/><path d="M-90.25,240.25v-30.5h30.5v30.5z"/><path d="M-120.25,270.25v-30.5h30.5v30.5z"/><path d="M-90.25,300.25v-30.5h30.5v30.5z"/><path d="M-120.25,330.25v-30.5h30.5v30.5z"/><path d="M-90.25,360.25v-30.5h30.5v30.5z"/><path d="M-120.25,390.25v-30.5h30.5v30.5z"/><path d="M-90.25,420.25v-30.5h30.5v30.5z"/><path d="M-120.25,450.25v-30.5h30.5v30.5z"/><path d="M-90.25,480.25v-30.5h30.5v30.5z"/><path d="M479.75,30.25v-30.5h30.5v30.5z"/><path d="M539.75,30.25v-30.5h30.5v30.5z"/><path d="M509.75,60.25v-30.5h30.5v30.5z"/><path d="M569.75,60.25v-30.5h30.5v30.5z"/><path d="M479.75,90.25v-30.5h30.5v30.5z"/><path d="M539.75,90.25v-30.5h30.5v30.5z"/><path d="M509.75,120.25v-30.5h30.5v30.5z"/><path d="M569.75,120.25v-30.5h30.5v30.5z"/><path d="M479.75,150.25v-30.5h30.5v30.5z"/><path d="M539.75,150.25v-30.5h30.5v30.5z"/><path d="M509.75,180.25v-30.5h30.5v30.5z"/><path d="M569.75,180.25v-30.5h30.5v30.5z"/><path d="M479.75,210.25v-30.5h30.5v30.5z"/><path d="M539.75,210.25v-30.5h30.5v30.5z"/><path d="M509.75,240.25v-30.5h30.5v30.5z"/><path d="M569.75,240.25v-30.5h30.5v30.5z"/><path d="M479.75,270.25v-30.5h30.5v30.5z"/><path d="M539.75,270.25v-30.5h30.5v30.5z"/><path d="M509.75,300.25v-30.5h30.5v30.5z"/><path d="M569.75,300.25v-30.5h30.5v30.5z"/><path d="M479.75,330.25v-30.5h30.5v30.5z"/><path d="M539.75,330.25v-30.5h30.5v30.5z"/><path d="M509.75,360.25v-30.5h30.5v30.5z"/><path d="M569.75,360.25v-30.5h30.5v30.5z"/><path d="M479.75,390.25v-30.5h30.5v30.5z"/><path d="M539.75,390.25v-30.5h30.5v30.5z"/><path d="M509.75,420.25v-30.5h30.5v30.5z"/><path d="M569.75,420.25v-30.5h30.5v30.5z"/><path d="M479.75,450.25v-30.5h30.5v30.5z"/><path d="M539.75,450.25v-30.5h30.5v30.5z"/><path d="M509.75,480.25v-30.5h30.5v30.5z"/><path d="M569.75,480.25v-30.5h30.5v30.5z"/><path d="M-0.25,-89.75v-30.5h30.5v30.5z"/><path d="M59.75,-89.75v-30.5h30.5v30.5z"/><path d="M119.75,-89.75v-30.5h30.5v30.5z"/><path d="M179.75,-89.75v-30.5h30.5v30.5z"/><path d="M239.75,-89.75v-30.5h30.5v30.5z"/><path d="M299.75,-89.75v-30.5h30.5v30.5z"/><path d="M359.75,-89.75v-30.5h30.5v30.5z"/><path d="M419.75,-89.75v-30.5h30.5v30.5z"/><path d="M29.75,-59.75v-30.5h30.5v30.5z"/><path d="M89.75,-59.75v-30.5h30.5v30.5z"/><path d="M149.75,-59.75v-30.5h30.5v30.5z"/><path d="M209.75,-59.75v-30.5h30.5v30.5z"/><path d="M269.75,-59.75v-30.5h30.5v30.5z"/><path d="M329.75,-59.75v-30.5h30.5v30.5z"/><path d="M389.75,-59.75v-30.5h30.5v30.5z"/><path d="M449.75,-59.75v-30.5h30.5v30.5z"/><path d="M-0.25,-29.75v-30.5h30.5v30.5z"/><path d="M59.75,-29.75v-30.5h30.5v30.5z"/><path d="M119.75,-29.75v-30.5h30.5v30.5z"/><path d="M179.75,-29.75v-30.5h30.5v30.5z"/><path d="M239.75,-29.75v-30.5h30.5v30.5z"/><path d="M299.75,-29.75v-30.5h30.5v30.5z"/><path d="M359.75,-29.75v-30.5h30.5v30.5z"/><path d="M419.75,-29.75v-30.5h30.5v30.5z"/><path d="M29.75,0.25v-30.5h30.5v30.5z"/><path d="M89.75,0.25v-30.5h30.5v30.5z"/><path d="M149.75,0.25v-30.5h30.5v30.5z"/><path d="M209.75,0.25v-30.5h30.5v30.5z"/><path d="M269.75,0.25v-30.5h30.5v30.5z"/><path d="M329.75,0.25v-30.5h30.5v30.5z"/><path d="M389.75,0.25v-30.5h30.5v30.5z"/><path d="M449.75,0.25v-30.5h30.5v30.5z"/><path d="M-60.25,-89.75v-30.5h30.5v30.5z"/><path d="M-30.25,-59.75v-30.5h30.5v30.5z"/><path d="M-60.25,-29.75v-30.5h30.5v30.5z"/><path d="M-30.25,0.25v-30.5h30.5v30.5z"/><path d="M-120.25,-89.75v-30.5h30.5v30.5z"/><path d="M-90.25,-59.75v-30.5h30.5v30.5z"/><path d="M-120.25,-29.75v-30.5h30.5v30.5z"/><path d="M-90.25,0.25v-30.5h30.5v30.5z"/><path d="M479.75,-89.75v-30.5h30.5v30.5z"/><path d="M539.75,-89.75v-30.5h30.5v30.5z"/><path d="M509.75,-59.75v-30.5h30.5v30.5z"/><path d="M569.75,-59.75v-30.5h30.5v30.5z"/><path d="M479.75,-29.75v-30.5h30.5v30.5z"/><path d="M539.75,-29.75v-30.5h30.5v30.5z"/><path d="M509.75,0.25v-30.5h30.5v30.5z"/><path d="M569.75,0.25v-30.5h30.5v30.5z"/><path d="M-0.25,510.25v-30.5h30.5v30.5z"/><path d="M59.75,510.25v-30.5h30.5v30.5z"/><path d="M119.75,510.25v-30.5h30.5v30.5z"/><path d="M179.75,510.25v-30.5h30.5v30.5z"/><path d="M239.75,510.25v-30.5h30.5v30.5z"/><path d="M299.75,510.25v-30.5h30.5v30.5z"/><path d="M359.75,510.25v-30.5h30.5v30.5z"/><path d="M419.75,510.25v-30.5h30.5v30.5z"/><path d="M29.75,540.25v-30.5h30.5v30.5z"/><path d="M89.75,540.25v-30.5h30.5v30.5z"/><path d="M149.75,540.25v-30.5h30.5v30.5z"/><path d="M209.75,540.25v-30.5h30.5v30.5z"/><path d="M269.75,540.25v-30.5h30.5v30.5z"/><path d="M329.75,540.25v-30.5h30.5v30.5z"/><path d="M389.75,540.25v-30.5h30.5v30.5z"/><path d="M449.75,540.25v-30.5h30.5v30.5z"/><path d="M-0.25,570.25v-30.5h30.5v30.5z"/><path d="M59.75,570.25v-30.5h30.5v30.5z"/><path d="M119.75,570.25v-30.5h30.5v30.5z"/><path d="M179.75,570.25v-30.5h30.5v30.5z"/><path d="M239.75,570.25v-30.5h30.5v30.5z"/><path d="M299.75,570.25v-30.5h30.5v30.5z"/><path d="M359.75,570.25v-30.5h30.5v30.5z"/><path d="M419.75,570.25v-30.5h30.5v30.5z"/><path d="M29.75,600.25v-30.5h30.5v30.5z"/><path d="M89.75,600.25v-30.5h30.5v30.5z"/><path d="M149.75,600.25v-30.5h30.5v30.5z"/><path d="M209.75,600.25v-30.5h30.5v30.5z"/><path d="M269.75,600.25v-30.5h30.5v30.5z"/><path d="M329.75,600.25v-30.5h30.5v30.5z"/><path d="M389.75,600.25v-30.5h30.5v30.5z"/><path d="M449.75,600.25v-30.5h30.5v30.5z"/><path d="M-60.25,510.25v-30.5h30.5v30.5z"/><path d="M-30.25,540.25v-30.5h30.5v30.5z"/><path d="M-60.25,570.25v-30.5h30.5v30.5z"/><path d="M-30.25,600.25v-30.5h30.5v30.5z"/><path d="M-120.25,510.25v-30.5h30.5v30.5z"/><path d="M-90.25,540.25v-30.5h30.5v30.5z"/><path d="M-120.25,570.25v-30.5h30.5v30.5z"/><path d="M-90.25,600.25v-30.5h30.5v30.5z"/><path d="M479.75,510.25v-30.5h30.5v30.5z"/><path d="M539.75,510.25v-30.5h30.5v30.5z"/><path d="M509.75,540.25v-30.5h30.5v30.5z"/><path d="M569.75,540.25v-30.5h30.5v30.5z"/><path d="M479.75,570.25v-30.5h30.5v30.5z"/><path d="M539.75,570.25v-30.5h30.5v30.5z"/><path d="M509.75,600.25v-30.5h30.5v30.5z"/><path d="M569.75,600.25v-30.5h30.5v30.5z"/></g></g></svg>