<svg version="1.1" xmlns="http://www.w3.org/2000/svg" xmlns:xlink="http://www.w3.org/1999/xlink" width="38.61292" height="29.4088" viewBox="0,0,38.61292,29.4088"><g transform="translate(-220.69354,-225.2956)"><g stroke="none" stroke-width="0.5" stroke-miterlimit="10"><path d="M231.10716,243.17713c-2.62894,-1.7998 -5.61492,-2.6591 -7.38143,-5.55962c-3.30751,-5.43077 0.93411,-12.61469 6.84552,-8.18005c0,0 0.32692,0.21927 0.83149,0.39591c-0.4079,1.43901 -0.79722,3.36576 -0.51017,4.01645c0.78713,1.78424 4.52329,1.11126 5.11294,2.19433c1.71727,3.15426 -4.76954,5.32198 0.65435,9.31256c0.65538,-0.03039 2.10275,-0.52923 1.96504,0.11223c-0.26106,1.21606 -0.53268,2.4281 -0.77708,3.64359c-1.86389,-2.23392 -4.14145,-4.15594 -6.74067,-5.9354z" fill="#ff8080"/><path d="M250.32657,230.08623c0.88258,-0.03856 1.57543,-0.39422 1.57543,-0.39422c6.41322,-4.22731 6.21192,6.88634 3.42179,10.3102c-2.06966,2.53975 -5.78005,3.84673 -8.40883,5.62649c-0.04432,0.03001 -0.08862,0.06011 -0.1329,0.09029c0.14043,-1.4449 -1.0182,-1.80815 -2.22193,-2.68131c-0.68333,-0.74509 5.1087,-4.66965 5.24785,-6.18794c0.09561,-1.04323 -3.08143,-4.41174 -3.00801,-4.61585c0.32738,-0.91013 1.46067,-1.49259 2.69806,-2.03666c0.2575,-0.0012 0.53346,-0.03549 0.82854,-0.111z" fill="#ff8080"/><path d="M235.55101,253.21745l-0.06504,-0.16089c-2.81821,-7.25391 -12.19662,-8.02273 -14.40914,-15.76337c-1.7255,-6.03678 2.57263,-12.54961 8.92229,-11.96036c1.29203,0.61491 2.32649,1.06291 2.95291,1.16331c-0.40687,0.58168 -0.88613,1.46585 -1.08348,1.93464c-0.21521,0.51122 -0.5495,1.59665 -0.78812,2.68041c-4.1171,-2.38552 -6.87312,2.67725 -4.49571,6.58084c1.33612,2.19384 3.57552,2.8032 5.56395,4.16449c2.24186,1.53479 4.12312,3.2009 5.62903,5.20609c0.19321,-0.63788 0.38928,-1.27547 0.59388,-1.90871c0.1882,0.02841 0.29566,0.11784 0.25333,0.31504c-0.65781,3.06416 -1.38267,6.10278 -1.57005,9.23547c-1.05211,-0.36942 -1.50385,-1.48695 -1.50385,-1.48695z" fill="#ff5959"/><path d="M258.38453,239.68527c-1.71689,4.30578 -5.42439,5.69723 -8.99022,8.10585c-2.24336,1.51532 -4.33529,3.37238 -6.46731,5.04082l-0.69676,0.69647c0,0 -1.19054,1.15617 -2.57362,0.61454c1.05055,-1.40968 2.2525,-2.75841 3.41715,-4.02095c1.08105,-1.17192 2.87127,-1.83767 3.43424,-3.32935c0.5703,-1.51111 0.22254,-2.18998 -0.4791,-2.75271c0.18915,-0.1336 0.37922,-0.26522 0.57031,-0.39459l-0.00001,-0.00001c1.9883,-1.34613 4.75389,-2.29694 6.3193,-4.21789c2.11034,-2.58966 2.28041,-10.9445 -2.57026,-7.74715c0,0 -0.51943,0.27221 -1.18699,0.30137c-0.86749,0.22199 -1.51267,-0.0258 -1.96726,-0.38273c1.48969,-1.64209 5.89159,-2.10477 6.19096,-4.27958c0.02986,-0.2169 -0.31009,-0.8369 -0.80275,-1.60677c6.73911,0.43635 7.84446,8.85121 5.80232,13.97267z" fill="#ff5959"/></g></g></svg>