<svg version="1.1" xmlns="http://www.w3.org/2000/svg" xmlns:xlink="http://www.w3.org/1999/xlink" width="26.00641" height="31.93305" viewBox="0,0,26.00641,31.93305"><g transform="translate(-226.9968,-224.03347)"><g stroke="none" stroke-width="0.5" stroke-miterlimit="10"><path d="M238.52144,251.11857c-0.85235,-3.20406 -2.38259,-6.21132 -4.37012,-9.20346c-1.76283,-2.65387 -4.20915,-4.56959 -4.75989,-7.92075c-1.03117,-6.27452 5.59361,-11.34524 9.41223,-5.0184c0,0 1.65238,2.43693 4.13414,1.19941c0.8547,-0.22344 1.45718,-0.71695 1.45718,-0.71695c5.37993,-5.48232 7.52206,5.42479 5.51498,9.35916c-1.48881,2.91844 -4.84104,4.97701 -7.03639,7.27015c-1.51414,1.58158 -2.95952,3.30257 -4.35213,5.03084z" fill="#ff8080"/><path d="M236.48944,255.48982c-0.0967,-0.06447 -0.18591,-0.13044 -0.26812,-0.19762c-1.71282,-0.4602 -1.71282,-2.40311 -1.71282,-2.40311v-0.17354c0.10572,-7.78141 -8.30105,-12.00892 -7.45137,-20.0146c0.7272,-6.85164 8.39483,-11.51612 14.38248,-6.67542c0.1299,0.10502 0.2491,0.22006 0.36016,0.34272c0.36587,-0.29508 0.75621,-0.54143 1.20432,-0.67269c7.54993,-2.21142 10.80396,6.41176 9.83136,12.16804c-0.77227,4.57067 -4.1039,6.71122 -7.08296,9.81634c-1.87421,1.95351 -3.52846,4.20923 -5.2616,6.289l-0.53458,0.82751c0,0 -1.38675,2.08013 -3.46688,0.69338zM242.1475,244.21525c1.66047,-1.73443 4.16402,-3.24597 5.2901,-5.45335c1.51807,-2.97579 -0.07398,-11.17931 -4.14312,-7.03272c0,0 -0.45051,0.37543 -1.09698,0.54443c-1.87709,0.93601 -3.10422,-0.90469 -3.10422,-0.90469c-2.88824,-4.78534 -7.85908,-0.97979 -7.07915,3.76599c0.41656,2.53468 2.26438,3.93889 3.59772,5.94617c1.50328,2.26311 2.62302,4.51283 3.2677,6.93624c1.05331,-1.30719 2.12273,-2.60582 3.26796,-3.80206z" fill="#ff5959"/></g></g></svg>