<svg version="1.1" xmlns="http://www.w3.org/2000/svg" xmlns:xlink="http://www.w3.org/1999/xlink" width="87" height="87" viewBox="0,0,87,87"><g transform="translate(-196.50004,-196.5)"><g stroke-miterlimit="10"><path d="M196.50005,240c0,-24.02438 19.47562,-43.5 43.5,-43.5c24.02438,0 43.5,19.47562 43.5,43.5c0,24.02438 -19.47562,43.5 -43.5,43.5c-24.02438,0 -43.5,-19.47562 -43.5,-43.5z" fill="#d9d9d9" stroke="none" stroke-width="0" stroke-linejoin="miter"/><g stroke="none" stroke-linejoin="miter"><path d="M204.1667,240c0,-19.79021 16.04312,-35.83334 35.83333,-35.83334c19.79021,0 35.83333,16.04313 35.83333,35.83334c0,19.79021 -16.04312,35.83334 -35.83332,35.83334c-19.79021,0 -35.83334,-16.04313 -35.83334,-35.83334z" fill="#ffffff" stroke-width="0"/><g fill="none" stroke-width="1" font-family="sans-serif" font-weight="normal" font-size="12" text-anchor="start"/></g><path d="M232.12505,217.48334l21.75,22.51666l-21.75,22.51666z" fill="#d9d9d9" stroke="#d9d9d9" stroke-width="3" stroke-linejoin="round"/></g></g></svg>