<svg version="1.1" xmlns="http://www.w3.org/2000/svg" xmlns:xlink="http://www.w3.org/1999/xlink" width="721.9014" height="721.9014" viewBox="0,0,721.9014,721.9014"><g transform="translate(120.9507,120.9507)"><g stroke="none" stroke-width="0" stroke-miterlimit="10"><path d="M-0.9507,30.9507v-31.9014h31.9014v31.9014z" fill="#d0f2ff"/><path d="M59.0493,30.9507v-31.9014h31.9014v31.9014z" fill="#d0f2ff"/><path d="M119.0493,30.9507v-31.9014h31.9014v31.9014z" fill="#d0f2ff"/><path d="M179.0493,30.9507v-31.9014h31.9014v31.9014z" fill="#d0f2ff"/><path d="M239.0493,30.9507v-31.9014h31.9014v31.9014z" fill="#d0f2ff"/><path d="M299.0493,30.9507v-31.9014h31.9014v31.9014z" fill="#d0f2ff"/><path d="M359.0493,30.9507v-31.9014h31.9014v31.9014z" fill="#d0f2ff"/><path d="M419.0493,30.9507v-31.9014h31.9014v31.9014z" fill="#d0f2ff"/><path d="M29.0493,60.9507v-31.9014h31.9014v31.9014z" fill="#d0f2ff"/><path d="M89.0493,60.9507v-31.9014h31.9014v31.9014z" fill="#d0f2ff"/><path d="M149.0493,60.9507v-31.9014h31.9014v31.9014z" fill="#d0f2ff"/><path d="M209.0493,60.9507v-31.9014h31.9014v31.9014z" fill="#d0f2ff"/><path d="M269.0493,60.9507v-31.9014h31.9014v31.9014z" fill="#d0f2ff"/><path d="M329.0493,60.9507v-31.9014h31.9014v31.9014z" fill="#d0f2ff"/><path d="M389.0493,60.9507v-31.9014h31.9014v31.9014z" fill="#d0f2ff"/><path d="M449.0493,60.9507v-31.9014h31.9014v31.9014z" fill="#d0f2ff"/><path d="M-0.9507,90.9507v-31.9014h31.9014v31.9014z" fill="#d0f2ff"/><path d="M59.0493,90.9507v-31.9014h31.9014v31.9014z" fill="#d0f2ff"/><path d="M119.0493,90.9507v-31.9014h31.9014v31.9014z" fill="#d0f2ff"/><path d="M179.0493,90.9507v-31.9014h31.9014v31.9014z" fill="#d0f2ff"/><path d="M239.0493,90.9507v-31.9014h31.9014v31.9014z" fill="#d0f2ff"/><path d="M299.0493,90.9507v-31.9014h31.9014v31.9014z" fill="#d0f2ff"/><path d="M359.0493,90.9507v-31.9014h31.9014v31.9014z" fill="#d0f2ff"/><path d="M419.0493,90.9507v-31.9014h31.9014v31.9014z" fill="#d0f2ff"/><path d="M29.0493,120.9507v-31.9014h31.9014v31.9014z" fill="#d0f2ff"/><path d="M89.0493,120.9507v-31.9014h31.9014v31.9014z" fill="#d0f2ff"/><path d="M149.0493,120.9507v-31.9014h31.9014v31.9014z" fill="#d0f2ff"/><path d="M209.0493,120.9507v-31.9014h31.9014v31.9014z" fill="#d0f2ff"/><path d="M269.0493,120.9507v-31.9014h31.9014v31.9014z" fill="#d0f2ff"/><path d="M329.0493,120.9507v-31.9014h31.9014v31.9014z" fill="#d0f2ff"/><path d="M389.0493,120.9507v-31.9014h31.9014v31.9014z" fill="#d0f2ff"/><path d="M449.0493,120.9507v-31.9014h31.9014v31.9014z" fill="#d0f2ff"/><path d="M-0.9507,150.9507v-31.9014h31.9014v31.9014z" fill="#d0f2ff"/><path d="M59.0493,150.9507v-31.9014h31.9014v31.9014z" fill="#d0f2ff"/><path d="M119.0493,150.9507v-31.9014h31.9014v31.9014z" fill="#d0f2ff"/><path d="M179.0493,150.9507v-31.9014h31.9014v31.9014z" fill="#d0f2ff"/><path d="M239.0493,150.9507v-31.9014h31.9014v31.9014z" fill="#d0f2ff"/><path d="M299.0493,150.9507v-31.9014h31.9014v31.9014z" fill="#d0f2ff"/><path d="M359.0493,150.9507v-31.9014h31.9014v31.9014z" fill="#d0f2ff"/><path d="M419.0493,150.9507v-31.9014h31.9014v31.9014z" fill="#d0f2ff"/><path d="M29.0493,180.9507v-31.9014h31.9014v31.9014z" fill="#d0f2ff"/><path d="M89.0493,180.9507v-31.9014h31.9014v31.9014z" fill="#d0f2ff"/><path d="M149.0493,180.9507v-31.9014h31.9014v31.9014z" fill="#d0f2ff"/><path d="M209.0493,180.9507v-31.9014h31.9014v31.9014z" fill="#d0f2ff"/><path d="M269.0493,180.9507v-31.9014h31.9014v31.9014z" fill="#d0f2ff"/><path d="M329.0493,180.9507v-31.9014h31.9014v31.9014z" fill="#d0f2ff"/><path d="M389.0493,180.9507v-31.9014h31.9014v31.9014z" fill="#d0f2ff"/><path d="M449.0493,180.9507v-31.9014h31.9014v31.9014z" fill="#d0f2ff"/><path d="M-0.9507,210.9507v-31.9014h31.9014v31.9014z" fill="#d0f2ff"/><path d="M59.0493,210.9507v-31.9014h31.9014v31.9014z" fill="#d0f2ff"/><path d="M119.0493,210.9507v-31.9014h31.9014v31.9014z" fill="#d0f2ff"/><path d="M179.0493,210.9507v-31.9014h31.9014v31.9014z" fill="#d0f2ff"/><path d="M239.0493,210.9507v-31.9014h31.9014v31.9014z" fill="#d0f2ff"/><path d="M299.0493,210.9507v-31.9014h31.9014v31.9014z" fill="#d0f2ff"/><path d="M359.0493,210.9507v-31.9014h31.9014v31.9014z" fill="#d0f2ff"/><path d="M419.0493,210.9507v-31.9014h31.9014v31.9014z" fill="#d0f2ff"/><path d="M29.0493,240.9507v-31.9014h31.9014v31.9014z" fill="#d0f2ff"/><path d="M89.0493,240.9507v-31.9014h31.9014v31.9014z" fill="#d0f2ff"/><path d="M149.0493,240.9507v-31.9014h31.9014v31.9014z" fill="#d0f2ff"/><path d="M209.0493,240.9507v-31.9014h31.9014v31.9014z" fill="#d0f2ff"/><path d="M269.0493,240.9507v-31.9014h31.9014v31.9014z" fill="#d0f2ff"/><path d="M329.0493,240.9507v-31.9014h31.9014v31.9014z" fill="#d0f2ff"/><path d="M389.0493,240.9507v-31.9014h31.9014v31.9014z" fill="#d0f2ff"/><path d="M449.0493,240.9507v-31.9014h31.9014v31.9014z" fill="#d0f2ff"/><path d="M-0.9507,270.9507v-31.9014h31.9014v31.9014z" fill="#d0f2ff"/><path d="M59.0493,270.9507v-31.9014h31.9014v31.9014z" fill="#d0f2ff"/><path d="M119.0493,270.9507v-31.9014h31.9014v31.9014z" fill="#d0f2ff"/><path d="M179.0493,270.9507v-31.9014h31.9014v31.9014z" fill="#d0f2ff"/><path d="M239.0493,270.9507v-31.9014h31.9014v31.9014z" fill="#d0f2ff"/><path d="M299.0493,270.9507v-31.9014h31.9014v31.9014z" fill="#d0f2ff"/><path d="M359.0493,270.9507v-31.9014h31.9014v31.9014z" fill="#d0f2ff"/><path d="M419.0493,270.9507v-31.9014h31.9014v31.9014z" fill="#d0f2ff"/><path d="M29.0493,300.9507v-31.9014h31.9014v31.9014z" fill="#d0f2ff"/><path d="M89.0493,300.9507v-31.9014h31.9014v31.9014z" fill="#d0f2ff"/><path d="M149.0493,300.9507v-31.9014h31.9014v31.9014z" fill="#d0f2ff"/><path d="M209.0493,300.9507v-31.9014h31.9014v31.9014z" fill="#d0f2ff"/><path d="M269.0493,300.9507v-31.9014h31.9014v31.9014z" fill="#d0f2ff"/><path d="M329.0493,300.9507v-31.9014h31.9014v31.9014z" fill="#d0f2ff"/><path d="M389.0493,300.9507v-31.9014h31.9014v31.9014z" fill="#d0f2ff"/><path d="M449.0493,300.9507v-31.9014h31.9014v31.9014z" fill="#d0f2ff"/><path d="M-0.9507,330.9507v-31.9014h31.9014v31.9014z" fill="#d0f2ff"/><path d="M59.0493,330.9507v-31.9014h31.9014v31.9014z" fill="#d0f2ff"/><path d="M119.0493,330.9507v-31.9014h31.9014v31.9014z" fill="#d0f2ff"/><path d="M179.0493,330.9507v-31.9014h31.9014v31.9014z" fill="#d0f2ff"/><path d="M239.0493,330.9507v-31.9014h31.9014v31.9014z" fill="#d0f2ff"/><path d="M299.0493,330.9507v-31.9014h31.9014v31.9014z" fill="#d0f2ff"/><path d="M359.0493,330.9507v-31.9014h31.9014v31.9014z" fill="#d0f2ff"/><path d="M419.0493,330.9507v-31.9014h31.9014v31.9014z" fill="#d0f2ff"/><path d="M29.0493,360.9507v-31.9014h31.9014v31.9014z" fill="#d0f2ff"/><path d="M89.0493,360.9507v-31.9014h31.9014v31.9014z" fill="#d0f2ff"/><path d="M149.0493,360.9507v-31.9014h31.9014v31.9014z" fill="#d0f2ff"/><path d="M209.0493,360.9507v-31.9014h31.9014v31.9014z" fill="#d0f2ff"/><path d="M269.0493,360.9507v-31.9014h31.9014v31.9014z" fill="#d0f2ff"/><path d="M329.0493,360.9507v-31.9014h31.9014v31.9014z" fill="#d0f2ff"/><path d="M389.0493,360.9507v-31.9014h31.9014v31.9014z" fill="#d0f2ff"/><path d="M449.0493,360.9507v-31.9014h31.9014v31.9014z" fill="#d0f2ff"/><path d="M-0.9507,390.9507v-31.9014h31.9014v31.9014z" fill="#d0f2ff"/><path d="M59.0493,390.9507v-31.9014h31.9014v31.9014z" fill="#d0f2ff"/><path d="M119.0493,390.9507v-31.9014h31.9014v31.9014z" fill="#d0f2ff"/><path d="M179.0493,390.9507v-31.9014h31.9014v31.9014z" fill="#d0f2ff"/><path d="M239.0493,390.9507v-31.9014h31.9014v31.9014z" fill="#d0f2ff"/><path d="M299.0493,390.9507v-31.9014h31.9014v31.9014z" fill="#d0f2ff"/><path d="M359.0493,390.9507v-31.9014h31.9014v31.9014z" fill="#d0f2ff"/><path d="M419.0493,390.9507v-31.9014h31.9014v31.9014z" fill="#d0f2ff"/><path d="M29.0493,420.9507v-31.9014h31.9014v31.9014z" fill="#d0f2ff"/><path d="M89.0493,420.9507v-31.9014h31.9014v31.9014z" fill="#d0f2ff"/><path d="M149.0493,420.9507v-31.9014h31.9014v31.9014z" fill="#d0f2ff"/><path d="M209.0493,420.9507v-31.9014h31.9014v31.9014z" fill="#d0f2ff"/><path d="M269.0493,420.9507v-31.9014h31.9014v31.9014z" fill="#d0f2ff"/><path d="M329.0493,420.9507v-31.9014h31.9014v31.9014z" fill="#d0f2ff"/><path d="M389.0493,420.9507v-31.9014h31.9014v31.9014z" fill="#d0f2ff"/><path d="M449.0493,420.9507v-31.9014h31.9014v31.9014z" fill="#d0f2ff"/><path d="M-0.9507,450.9507v-31.9014h31.9014v31.9014z" fill="#d0f2ff"/><path d="M59.0493,450.9507v-31.9014h31.9014v31.9014z" fill="#d0f2ff"/><path d="M119.0493,450.9507v-31.9014h31.9014v31.9014z" fill="#d0f2ff"/><path d="M179.0493,450.9507v-31.9014h31.9014v31.9014z" fill="#d0f2ff"/><path d="M239.0493,450.9507v-31.9014h31.9014v31.9014z" fill="#d0f2ff"/><path d="M299.0493,450.9507v-31.9014h31.9014v31.9014z" fill="#d0f2ff"/><path d="M359.0493,450.9507v-31.9014h31.9014v31.9014z" fill="#d0f2ff"/><path d="M419.0493,450.9507v-31.9014h31.9014v31.9014z" fill="#d0f2ff"/><path d="M29.0493,480.9507v-31.9014h31.9014v31.9014z" fill="#d0f2ff"/><path d="M89.0493,480.9507v-31.9014h31.9014v31.9014z" fill="#d0f2ff"/><path d="M149.0493,480.9507v-31.9014h31.9014v31.9014z" fill="#d0f2ff"/><path d="M209.0493,480.9507v-31.9014h31.9014v31.9014z" fill="#d0f2ff"/><path d="M269.0493,480.9507v-31.9014h31.9014v31.9014z" fill="#d0f2ff"/><path d="M329.0493,480.9507v-31.9014h31.9014v31.9014z" fill="#d0f2ff"/><path d="M389.0493,480.9507v-31.9014h31.9014v31.9014z" fill="#d0f2ff"/><path d="M449.0493,480.9507v-31.9014h31.9014v31.9014z" fill="#d0f2ff"/><path d="M-0.9507,-29.0493v-31.9014h31.9014v31.9014z" fill="#d0f2ff"/><path d="M59.0493,-29.0493v-31.9014h31.9014v31.9014z" fill="#d0f2ff"/><path d="M119.0493,-29.0493v-31.9014h31.9014v31.9014z" fill="#d0f2ff"/><path d="M179.0493,-29.0493v-31.9014h31.9014v31.9014z" fill="#d0f2ff"/><path d="M239.0493,-29.0493v-31.9014h31.9014v31.9014z" fill="#d0f2ff"/><path d="M299.0493,-29.0493v-31.9014h31.9014v31.9014z" fill="#d0f2ff"/><path d="M359.0493,-29.0493v-31.9014h31.9014v31.9014z" fill="#d0f2ff"/><path d="M419.0493,-29.0493v-31.9014h31.9014v31.9014z" fill="#d0f2ff"/><path d="M29.0493,0.9507v-31.9014h31.9014v31.9014z" fill="#d0f2ff"/><path d="M89.0493,0.9507v-31.9014h31.9014v31.9014z" fill="#d0f2ff"/><path d="M149.0493,0.9507v-31.9014h31.9014v31.9014z" fill="#d0f2ff"/><path d="M209.0493,0.9507v-31.9014h31.9014v31.9014z" fill="#d0f2ff"/><path d="M269.0493,0.9507v-31.9014h31.9014v31.9014z" fill="#d0f2ff"/><path d="M329.0493,0.9507v-31.9014h31.9014v31.9014z" fill="#d0f2ff"/><path d="M389.0493,0.9507v-31.9014h31.9014v31.9014z" fill="#d0f2ff"/><path d="M449.0493,0.9507v-31.9014h31.9014v31.9014z" fill="#d0f2ff"/><path d="M-0.9507,510.9507v-31.9014h31.9014v31.9014z" fill="#d0f2ff"/><path d="M59.0493,510.9507v-31.9014h31.9014v31.9014z" fill="#d0f2ff"/><path d="M119.0493,510.9507v-31.9014h31.9014v31.9014z" fill="#d0f2ff"/><path d="M179.0493,510.9507v-31.9014h31.9014v31.9014z" fill="#d0f2ff"/><path d="M239.0493,510.9507v-31.9014h31.9014v31.9014z" fill="#d0f2ff"/><path d="M299.0493,510.9507v-31.9014h31.9014v31.9014z" fill="#d0f2ff"/><path d="M359.0493,510.9507v-31.9014h31.9014v31.9014z" fill="#d0f2ff"/><path d="M419.0493,510.9507v-31.9014h31.9014v31.9014z" fill="#d0f2ff"/><path d="M29.0493,540.9507v-31.9014h31.9014v31.9014z" fill="#d0f2ff"/><path d="M89.0493,540.9507v-31.9014h31.9014v31.9014z" fill="#d0f2ff"/><path d="M149.0493,540.9507v-31.9014h31.9014v31.9014z" fill="#d0f2ff"/><path d="M209.0493,540.9507v-31.9014h31.9014v31.9014z" fill="#d0f2ff"/><path d="M269.0493,540.9507v-31.9014h31.9014v31.9014z" fill="#d0f2ff"/><path d="M329.0493,540.9507v-31.9014h31.9014v31.9014z" fill="#d0f2ff"/><path d="M389.0493,540.9507v-31.9014h31.9014v31.9014z" fill="#d0f2ff"/><path d="M449.0493,540.9507v-31.9014h31.9014v31.9014z" fill="#d0f2ff"/><path d="M-60.9507,30.9507v-31.9014h31.9014v31.9014z" fill="#d0f2ff"/><path d="M-30.9507,60.9507v-31.9014h31.9014v31.9014z" fill="#d0f2ff"/><path d="M-60.9507,90.9507v-31.9014h31.9014v31.9014z" fill="#d0f2ff"/><path d="M-30.9507,120.9507v-31.9014h31.9014v31.9014z" fill="#d0f2ff"/><path d="M-60.9507,150.9507v-31.9014h31.9014v31.9014z" fill="#d0f2ff"/><path d="M-30.9507,180.9507v-31.9014h31.9014v31.9014z" fill="#d0f2ff"/><path d="M-60.9507,210.9507v-31.9014h31.9014v31.9014z" fill="#d0f2ff"/><path d="M-30.9507,240.9507v-31.9014h31.9014v31.9014z" fill="#d0f2ff"/><path d="M-60.9507,270.9507v-31.9014h31.9014v31.9014z" fill="#d0f2ff"/><path d="M-30.9507,300.9507v-31.9014h31.9014v31.9014z" fill="#d0f2ff"/><path d="M-60.9507,330.9507v-31.9014h31.9014v31.9014z" fill="#d0f2ff"/><path d="M-30.9507,360.9507v-31.9014h31.9014v31.9014z" fill="#d0f2ff"/><path d="M-60.9507,390.9507v-31.9014h31.9014v31.9014z" fill="#d0f2ff"/><path d="M-30.9507,420.9507v-31.9014h31.9014v31.9014z" fill="#d0f2ff"/><path d="M-60.9507,450.9507v-31.9014h31.9014v31.9014z" fill="#d0f2ff"/><path d="M-30.9507,480.9507v-31.9014h31.9014v31.9014z" fill="#d0f2ff"/><path d="M-60.9507,-29.0493v-31.9014h31.9014v31.9014z" fill="#d0f2ff"/><path d="M-30.9507,0.9507v-31.9014h31.9014v31.9014z" fill="#d0f2ff"/><path d="M-60.9507,510.9507v-31.9014h31.9014v31.9014z" fill="#d0f2ff"/><path d="M-30.9507,540.9507v-31.9014h31.9014v31.9014z" fill="#d0f2ff"/><path d="M479.0493,30.9507v-31.9014h31.9014v31.9014z" fill="#d0f2ff"/><path d="M509.0493,60.9507v-31.9014h31.9014v31.9014z" fill="#d0f2ff"/><path d="M479.0493,90.9507v-31.9014h31.9014v31.9014z" fill="#d0f2ff"/><path d="M509.0493,120.9507v-31.9014h31.9014v31.9014z" fill="#d0f2ff"/><path d="M479.0493,150.9507v-31.9014h31.9014v31.9014z" fill="#d0f2ff"/><path d="M509.0493,180.9507v-31.9014h31.9014v31.9014z" fill="#d0f2ff"/><path d="M479.0493,210.9507v-31.9014h31.9014v31.9014z" fill="#d0f2ff"/><path d="M509.0493,240.9507v-31.9014h31.9014v31.9014z" fill="#d0f2ff"/><path d="M479.0493,270.9507v-31.9014h31.9014v31.9014z" fill="#d0f2ff"/><path d="M509.0493,300.9507v-31.9014h31.9014v31.9014z" fill="#d0f2ff"/><path d="M479.0493,330.9507v-31.9014h31.9014v31.9014z" fill="#d0f2ff"/><path d="M509.0493,360.9507v-31.9014h31.9014v31.9014z" fill="#d0f2ff"/><path d="M479.0493,390.9507v-31.9014h31.9014v31.9014z" fill="#d0f2ff"/><path d="M509.0493,420.9507v-31.9014h31.9014v31.9014z" fill="#d0f2ff"/><path d="M479.0493,450.9507v-31.9014h31.9014v31.9014z" fill="#d0f2ff"/><path d="M509.0493,480.9507v-31.9014h31.9014v31.9014z" fill="#d0f2ff"/><path d="M479.0493,-29.0493v-31.9014h31.9014v31.9014z" fill="#d0f2ff"/><path d="M509.0493,0.9507v-31.9014h31.9014v31.9014z" fill="#d0f2ff"/><path d="M479.0493,510.9507v-31.9014h31.9014v31.9014z" fill="#d0f2ff"/><path d="M509.0493,540.9507v-31.9014h31.9014v31.9014z" fill="#d0f2ff"/><path d="M-0.9507,-89.0493v-31.9014h31.9014v31.9014z" fill="#d0f2ff"/><path d="M59.0493,-89.0493v-31.9014h31.9014v31.9014z" fill="#d0f2ff"/><path d="M119.0493,-89.0493v-31.9014h31.9014v31.9014z" fill="#d0f2ff"/><path d="M179.0493,-89.0493v-31.9014h31.9014v31.9014z" fill="#d0f2ff"/><path d="M239.0493,-89.0493v-31.9014h31.9014v31.9014z" fill="#d0f2ff"/><path d="M299.0493,-89.0493v-31.9014h31.9014v31.9014z" fill="#d0f2ff"/><path d="M359.0493,-89.0493v-31.9014h31.9014v31.9014z" fill="#d0f2ff"/><path d="M419.0493,-89.0493v-31.9014h31.9014v31.9014z" fill="#d0f2ff"/><path d="M29.0493,-59.0493v-31.9014h31.9014v31.9014z" fill="#d0f2ff"/><path d="M89.0493,-59.0493v-31.9014h31.9014v31.9014z" fill="#d0f2ff"/><path d="M149.0493,-59.0493v-31.9014h31.9014v31.9014z" fill="#d0f2ff"/><path d="M209.0493,-59.0493v-31.9014h31.9014v31.9014z" fill="#d0f2ff"/><path d="M269.0493,-59.0493v-31.9014h31.9014v31.9014z" fill="#d0f2ff"/><path d="M329.0493,-59.0493v-31.9014h31.9014v31.9014z" fill="#d0f2ff"/><path d="M389.0493,-59.0493v-31.9014h31.9014v31.9014z" fill="#d0f2ff"/><path d="M449.0493,-59.0493v-31.9014h31.9014v31.9014z" fill="#d0f2ff"/><path d="M-60.9507,-89.0493v-31.9014h31.9014v31.9014z" fill="#d0f2ff"/><path d="M-30.9507,-59.0493v-31.9014h31.9014v31.9014z" fill="#d0f2ff"/><path d="M479.0493,-89.0493v-31.9014h31.9014v31.9014z" fill="#d0f2ff"/><path d="M509.0493,-59.0493v-31.9014h31.9014v31.9014z" fill="#d0f2ff"/><path d="M-0.9507,570.9507v-31.9014h31.9014v31.9014z" fill="#d0f2ff"/><path d="M59.0493,570.9507v-31.9014h31.9014v31.9014z" fill="#d0f2ff"/><path d="M119.0493,570.9507v-31.9014h31.9014v31.9014z" fill="#d0f2ff"/><path d="M179.0493,570.9507v-31.9014h31.9014v31.9014z" fill="#d0f2ff"/><path d="M239.0493,570.9507v-31.9014h31.9014v31.9014z" fill="#d0f2ff"/><path d="M299.0493,570.9507v-31.9014h31.9014v31.9014z" fill="#d0f2ff"/><path d="M359.0493,570.9507v-31.9014h31.9014v31.9014z" fill="#d0f2ff"/><path d="M419.0493,570.9507v-31.9014h31.9014v31.9014z" fill="#d0f2ff"/><path d="M29.0493,600.9507v-31.9014h31.9014v31.9014z" fill="#d0f2ff"/><path d="M89.0493,600.9507v-31.9014h31.9014v31.9014z" fill="#d0f2ff"/><path d="M149.0493,600.9507v-31.9014h31.9014v31.9014z" fill="#d0f2ff"/><path d="M209.0493,600.9507v-31.9014h31.9014v31.9014z" fill="#d0f2ff"/><path d="M269.0493,600.9507v-31.9014h31.9014v31.9014z" fill="#d0f2ff"/><path d="M329.0493,600.9507v-31.9014h31.9014v31.9014z" fill="#d0f2ff"/><path d="M389.0493,600.9507v-31.9014h31.9014v31.9014z" fill="#d0f2ff"/><path d="M449.0493,600.9507v-31.9014h31.9014v31.9014z" fill="#d0f2ff"/><path d="M-60.9507,570.9507v-31.9014h31.9014v31.9014z" fill="#d0f2ff"/><path d="M-30.9507,600.9507v-31.9014h31.9014v31.9014z" fill="#d0f2ff"/><path d="M479.0493,570.9507v-31.9014h31.9014v31.9014z" fill="#d0f2ff"/><path d="M509.0493,600.9507v-31.9014h31.9014v31.9014z" fill="#d0f2ff"/><path d="M-120.9507,30.9507v-31.9014h31.9014v31.9014z" fill="#d0f2ff"/><path d="M-90.9507,60.9507v-31.9014h31.9014v31.9014z" fill="#d0f2ff"/><path d="M-120.9507,90.9507v-31.9014h31.9014v31.9014z" fill="#d0f2ff"/><path d="M-90.9507,120.9507v-31.9014h31.9014v31.9014z" fill="#d0f2ff"/><path d="M-120.9507,150.9507v-31.9014h31.9014v31.9014z" fill="#d0f2ff"/><path d="M-90.9507,180.9507v-31.9014h31.9014v31.9014z" fill="#d0f2ff"/><path d="M-120.9507,210.9507v-31.9014h31.9014v31.9014z" fill="#d0f2ff"/><path d="M-90.9507,240.9507v-31.9014h31.9014v31.9014z" fill="#d0f2ff"/><path d="M-120.9507,270.9507v-31.9014h31.9014v31.9014z" fill="#d0f2ff"/><path d="M-90.9507,300.9507v-31.9014h31.9014v31.9014z" fill="#d0f2ff"/><path d="M-120.9507,330.9507v-31.9014h31.9014v31.9014z" fill="#d0f2ff"/><path d="M-90.9507,360.9507v-31.9014h31.9014v31.9014z" fill="#d0f2ff"/><path d="M-120.9507,390.9507v-31.9014h31.9014v31.9014z" fill="#d0f2ff"/><path d="M-90.9507,420.9507v-31.9014h31.9014v31.9014z" fill="#d0f2ff"/><path d="M-120.9507,450.9507v-31.9014h31.9014v31.9014z" fill="#d0f2ff"/><path d="M-90.9507,480.9507v-31.9014h31.9014v31.9014z" fill="#d0f2ff"/><path d="M-120.9507,-29.0493v-31.9014h31.9014v31.9014z" fill="#d0f2ff"/><path d="M-90.9507,0.9507v-31.9014h31.9014v31.9014z" fill="#d0f2ff"/><path d="M-120.9507,510.9507v-31.9014h31.9014v31.9014z" fill="#d0f2ff"/><path d="M-90.9507,540.9507v-31.9014h31.9014v31.9014z" fill="#d0f2ff"/><path d="M-120.9507,-89.0493v-31.9014h31.9014v31.9014z" fill="#d0f2ff"/><path d="M-90.9507,-59.0493v-31.9014h31.9014v31.9014z" fill="#d0f2ff"/><path d="M-120.9507,570.9507v-31.9014h31.9014v31.9014z" fill="#d0f2ff"/><path d="M-90.9507,600.9507v-31.9014h31.9014v31.9014z" fill="#d0f2ff"/><path d="M539.0493,30.9507v-31.9014h31.9014v31.9014z" fill="#d0f2ff"/><path d="M569.0493,60.9507v-31.9014h31.9014v31.9014z" fill="#d0f2ff"/><path d="M539.0493,90.9507v-31.9014h31.9014v31.9014z" fill="#d0f2ff"/><path d="M569.0493,120.9507v-31.9014h31.9014v31.9014z" fill="#d0f2ff"/><path d="M539.0493,150.9507v-31.9014h31.9014v31.9014z" fill="#d0f2ff"/><path d="M569.0493,180.9507v-31.9014h31.9014v31.9014z" fill="#d0f2ff"/><path d="M539.0493,210.9507v-31.9014h31.9014v31.9014z" fill="#d0f2ff"/><path d="M569.0493,240.9507v-31.9014h31.9014v31.9014z" fill="#d0f2ff"/><path d="M539.0493,270.9507v-31.9014h31.9014v31.9014z" fill="#d0f2ff"/><path d="M569.0493,300.9507v-31.9014h31.9014v31.9014z" fill="#d0f2ff"/><path d="M539.0493,330.9507v-31.9014h31.9014v31.9014z" fill="#d0f2ff"/><path d="M569.0493,360.9507v-31.9014h31.9014v31.9014z" fill="#d0f2ff"/><path d="M539.0493,390.9507v-31.9014h31.9014v31.9014z" fill="#d0f2ff"/><path d="M569.0493,420.9507v-31.9014h31.9014v31.9014z" fill="#d0f2ff"/><path d="M539.0493,450.9507v-31.9014h31.9014v31.9014z" fill="#d0f2ff"/><path d="M569.0493,480.9507v-31.9014h31.9014v31.9014z" fill="#d0f2ff"/><path d="M539.0493,-29.0493v-31.9014h31.9014v31.9014z" fill="#d0f2ff"/><path d="M569.0493,0.9507v-31.9014h31.9014v31.9014z" fill="#d0f2ff"/><path d="M539.0493,510.9507v-31.9014h31.9014v31.9014z" fill="#d0f2ff"/><path d="M569.0493,540.9507v-31.9014h31.9014v31.9014z" fill="#d0f2ff"/><path d="M539.0493,-89.0493v-31.9014h31.9014v31.9014z" fill="#d0f2ff"/><path d="M569.0493,-59.0493v-31.9014h31.9014v31.9014z" fill="#d0f2ff"/><path d="M539.0493,570.9507v-31.9014h31.9014v31.9014z" fill="#d0f2ff"/><path d="M569.0493,600.9507v-31.9014h31.9014v31.9014z" fill="#d0f2ff"/></g></g></svg>