<svg version="1.1" xmlns="http://www.w3.org/2000/svg" xmlns:xlink="http://www.w3.org/1999/xlink" width="61.8" height="61.8" viewBox="0,0,61.8,61.8"><g transform="translate(-209.10006,-209.1)"><g stroke-miterlimit="10"><path d="M209.10006,240c0,-17.06559 13.83441,-30.9 30.9,-30.9c17.06559,0 30.9,13.83441 30.9,30.9c0,17.06559 -13.83441,30.9 -30.9,30.9c-17.06559,0 -30.9,-13.83441 -30.9,-30.9z" fill="#0d0d0d" stroke="none" stroke-width="0" stroke-linecap="butt"/><g stroke="none" stroke-linecap="butt"><path d="M214.54603,240c0,-14.05787 11.39615,-25.45403 25.45402,-25.45403c14.05787,0 25.45402,11.39615 25.45402,25.45403c0,14.05787 -11.39615,25.45403 -25.45401,25.45403c-14.05787,0 -25.45403,-11.39615 -25.45403,-25.45403z" fill="#333333" stroke-width="0"/><g fill="none" stroke-width="1" font-family="sans-serif" font-weight="normal" font-size="12" text-anchor="start"/></g><path d="M233.18116,236.71843c0.32614,-2.9353 0.45254,-6.64795 2.73244,-8.81429c4.07101,-3.86824 10.02628,-0.52627 10.79279,4.4935c0.78983,5.17251 -2.75396,3.66826 -5.07737,5.70204c-1.52213,1.33239 -1.18215,5.98899 -1.18729,7.81375" fill="none" stroke="#0d0d0d" stroke-width="3.5" stroke-linecap="round"/><path d="M238.18499,251.96504c0,-1.00244 0.81264,-1.81507 1.81507,-1.81507c1.00244,0 1.81507,0.81264 1.81507,1.81507c0,1.00244 -0.81264,1.81507 -1.81507,1.81507c-1.00244,0 -1.81507,-0.81264 -1.81507,-1.81507z" fill="#0d0d0d" stroke="none" stroke-width="0.5" stroke-linecap="butt"/></g></g></svg>