<svg version="1.1" xmlns="http://www.w3.org/2000/svg" xmlns:xlink="http://www.w3.org/1999/xlink" width="277.76289" height="110.5192" viewBox="0,0,277.76289,110.5192"><g transform="translate(-106.12727,-181.98429)"><g stroke-miterlimit="10"><text transform="translate(352.20266,239.76974) scale(0.5,0.5)" font-size="40" xml:space="preserve" fill="#000000" stroke="#ffffff" stroke-width="10" stroke-linejoin="miter" font-family="Playful" font-weight="normal" text-anchor="start"><tspan x="0" dy="0">1.1</tspan></text><g fill="#ff6666" stroke="#000000" stroke-width="5" stroke-linejoin="miter"><path d="M329.84627,227.02865c0.75443,-4.40942 4.94057,-7.3724 9.34999,-6.61797c4.40942,0.75443 7.3724,4.94058 6.61797,9.35c-0.75443,4.40942 -4.94058,7.3724 -9.35,6.61796c-4.40942,-0.75443 -7.37239,-4.94057 -6.61796,-9.35z"/><path d="M304.53854,225.96037c-0.63441,-1.07704 0.44264,-1.71145 0.44264,-1.71145l1.12203,-0.64632c3.47926,-1.39513 8.6071,-3.25671 12.42532,-2.90736c2.54825,0.23316 5.26195,0.64239 7.84889,0.4464c0,0 1.24706,-0.08576 1.33282,1.16129c0.08576,1.24705 -1.16129,1.33282 -1.16129,1.33282c-2.72341,0.17179 -5.57036,-0.17552 -8.25062,-0.45113c-3.29366,-0.33867 -8.28222,1.47042 -11.24369,2.72986l-0.80464,0.48853c0,0 -1.07705,0.6344 -1.71146,-0.44264z"/><path d="M306.67256,229.7639c-0.08576,-1.24705 1.16129,-1.33282 1.16129,-1.33282l0.60769,0.0225c4.70183,-1.93499 11.10961,-3.37869 16.18357,-2.11533c0,0 1.21018,0.31299 0.89719,1.52317c-0.31299,1.21018 -1.52317,0.89719 -1.52317,0.89719c-4.4651,-1.21067 -10.4748,0.30663 -14.60615,2.00685l-1.3876,0.15973c0,0 -1.24705,0.08576 -1.33281,-1.16129z"/><path d="M308.6375,235.53798c-0.47571,-1.15594 0.68023,-1.63165 0.68023,-1.63165l1.65346,-0.66301c4.61048,-0.31707 11.3842,-4.01362 15.5714,-0.72007c0,0 0.94245,0.82116 0.12129,1.7636c-0.82116,0.94244 -1.7636,0.12129 -1.7636,0.12129c-0.96107,-1.02599 -1.75102,-0.51496 -3.15226,-0.41859c-1.82936,0.12581 -4.00859,-0.04301 -5.78722,0.38181c-1.60636,0.38369 -2.70475,1.18837 -4.42079,1.30639l-1.27085,0.54046c0,0 -1.15594,0.47572 -1.63166,-0.68022z"/></g><g stroke="#000000" stroke-width="10" stroke-linejoin="round" font-family="Playful" font-weight="400" font-size="40" text-anchor="start"><text transform="translate(114.3904,230.53746) rotate(-5.3937) scale(0.90666,0.90666)" font-size="40" xml:space="preserve" fill="#ffcaca"><tspan x="0" dy="0">Don't</tspan></text><text transform="translate(214.19261,223.89404) rotate(3.10763) scale(0.89464,0.89464)" font-size="40" xml:space="preserve" fill="#ffcaca"><tspan x="0" dy="0">Lose</tspan></text><text transform="translate(118.33433,267.89521) rotate(2.43184) scale(0.98584,0.98584)" font-size="40" xml:space="preserve" fill="#d9f6ff"><tspan x="0" dy="0">Your Marbles!</tspan></text></g><g stroke="none" stroke-width="1" stroke-linejoin="round" font-family="Playful" font-weight="400" font-size="40" text-anchor="start"><text transform="translate(114.3904,230.53746) rotate(-5.3937) scale(0.90666,0.90666)" font-size="40" xml:space="preserve" fill="#ffcaca"><tspan x="0" dy="0">Don't</tspan></text><text transform="translate(214.19261,223.89404) rotate(3.10763) scale(0.89464,0.89464)" font-size="40" xml:space="preserve" fill="#ffcaca"><tspan x="0" dy="0">Lose</tspan></text><text transform="translate(118.33433,267.89521) rotate(2.43184) scale(0.98584,0.98584)" font-size="40" xml:space="preserve" fill="#d9f6ff"><tspan x="0" dy="0">Your Marbles!</tspan></text></g><g fill="#ff6666" stroke="none" stroke-linejoin="miter"><path d="M329.84626,227.02865c0.75443,-4.40943 4.94057,-7.3724 9.35,-6.61797c4.40943,0.75443 7.3724,4.94057 6.61797,9.35c-0.75443,4.40943 -4.94057,7.37239 -9.35,6.61797c-4.40943,-0.75443 -7.37239,-4.94057 -6.61797,-9.35z" stroke-width="0"/><path d="M304.53854,225.96037c-0.63441,-1.07705 0.44264,-1.71145 0.44264,-1.71145l1.12203,-0.64633c3.47926,-1.39512 8.6071,-3.25671 12.42532,-2.90735c2.54825,0.23315 5.26195,0.64239 7.84889,0.4464c0,0 1.24705,-0.08576 1.33282,1.16129c0.08576,1.24705 -1.16129,1.33282 -1.16129,1.33282c-2.72341,0.17179 -5.57037,-0.17553 -8.25062,-0.45113c-3.29366,-0.33868 -8.28221,1.47042 -11.24369,2.72985l-0.80465,0.48854c0,0 -1.07705,0.63441 -1.71145,-0.44264z" stroke-width="0.5"/><path d="M306.67256,229.7639c-0.08576,-1.24705 1.16129,-1.33282 1.16129,-1.33282l0.60769,0.0225c4.70183,-1.93499 11.10962,-3.37869 16.18357,-2.11534c0,0 1.21018,0.31299 0.89719,1.52317c-0.31299,1.21018 -1.52317,0.89719 -1.52317,0.89719c-4.4651,-1.21067 -10.4748,0.30664 -14.60616,2.00685l-1.3876,0.15972c0,0 -1.24705,0.08576 -1.33282,-1.16129z" stroke-width="0.5"/><path d="M308.6375,235.53798c-0.47571,-1.15594 0.68022,-1.63165 0.68022,-1.63165l1.65346,-0.66301c4.61048,-0.31707 11.38419,-4.01362 15.5714,-0.72007c0,0 0.94244,0.82116 0.12129,1.7636c-0.82116,0.94244 -1.7636,0.12129 -1.7636,0.12129c-0.96107,-1.026 -1.75102,-0.51496 -3.15226,-0.41859c-1.82935,0.12581 -4.00859,-0.04301 -5.78721,0.38182c-1.60636,0.38368 -2.70475,1.18837 -4.42079,1.30639l-1.27086,0.54046c0,0 -1.15594,0.47571 -1.63165,-0.68022z" stroke-width="0.5"/></g><text transform="translate(352.20266,239.76974) scale(0.5,0.5)" font-size="40" xml:space="preserve" fill="#000000" stroke="none" stroke-width="1" stroke-linejoin="miter" font-family="Playful" font-weight="normal" text-anchor="start"><tspan x="0" dy="0">1.1</tspan></text></g></g></svg>